<?xml version="1.0" encoding="utf-8"?>
<!-- Generator: Adobe Illustrator 23.0.3, SVG Export Plug-In . SVG Version: 6.00 Build 0)  -->
<svg version="1.1" id="Layer_1" xmlns="http://www.w3.org/2000/svg" xmlns:xlink="http://www.w3.org/1999/xlink" x="0px" y="0px"
	 viewBox="0 0 397.3 203.7" style="enable-background:new 0 0 397.3 203.7;" xml:space="preserve">
<style type="text/css">
	.st0{fill:#E86161;}
	.st1{fill:#80869B;}
	.st2{fill:#BFC2CD;}
</style>
<g>
	<g>
		<path class="st0" d="M215.6,57c0-7.4,4.6-12.9,11.9-12.9c7.3,0,11.9,5.5,11.9,12.9c0,7.4-4.6,12.9-11.9,12.9
			C220.2,69.9,215.6,64.4,215.6,57z M234.3,57c0-4.9-2.2-8.8-6.7-8.8s-6.9,3.8-6.9,8.8c0,4.9,2.3,8.8,6.9,8.8S234.3,61.9,234.3,57z"
			/>
		<path class="st0" d="M241.8,51.6h4.5v2.2h0.1c1.1-1.6,2.8-2.7,5.2-2.7c4.7,0,7.7,3.8,7.7,9.4c0,5.7-3.1,9.4-7.7,9.4
			c-2.5,0-4.1-1-5.1-2.5h-0.1v7.8h-4.7V51.6z M254.6,60.6c0-3.4-1.2-5.7-4.1-5.7c-2.9,0-4.1,2.5-4.1,5.7c0,3.2,1.5,5.3,4.3,5.3
			C253.1,65.9,254.6,63.9,254.6,60.6z"/>
		<path class="st0" d="M260.7,60.4c0-5.3,3.6-9.3,8.8-9.3c5.7,0,8.8,4.4,8.8,10.7h-12.9c0.3,2.7,1.9,4.4,4.5,4.4
			c1.8,0,2.9-0.8,3.4-2.2h4.6c-0.7,3.1-3.5,5.8-8,5.8C264,69.8,260.7,65.7,260.7,60.4z M265.4,58.5h7.9c-0.1-2.2-1.6-3.8-3.8-3.8
			C267,54.7,265.8,56.2,265.4,58.5z"/>
		<path class="st0" d="M285,54h0.1c1.2-1.9,2.8-2.9,5.3-2.9c3.7,0,6.1,2.8,6.1,6.6v11.6h-4.7V58.4c0-1.9-1.1-3.3-3.1-3.3
			c-2.1,0-3.6,1.7-3.6,4.1v10.1h-4.7V51.6h4.6V54z"/>
		<path class="st0" d="M216.7,79H228c4.8,0,8,2.8,8,6.9c0,2.9-1.3,5.1-4.5,6v0.1c2.3,0.7,3.5,2,3.8,5c0.3,3.5,0.2,6.2,1.1,6.5v0.2
			h-4.8c-0.6-0.3-0.7-3-0.9-5.7c-0.2-2.7-1.7-4.2-4.8-4.2h-4v9.9h-5V79z M221.7,89.9h5.3c2.7,0,4.1-1.4,4.1-3.4c0-2-1.3-3.5-3.9-3.5
			h-5.5V89.9z"/>
		<path class="st0" d="M237.8,94.8c0-5.3,3.6-9.3,8.8-9.3c5.7,0,8.8,4.4,8.8,10.7h-12.9c0.3,2.7,1.9,4.4,4.5,4.4
			c1.8,0,2.9-0.8,3.4-2.2h4.6c-0.7,3.1-3.5,5.8-8,5.8C241.1,104.2,237.8,100.1,237.8,94.8z M242.5,92.9h7.9
			c-0.1-2.2-1.6-3.8-3.8-3.8C244.1,89.1,242.9,90.6,242.5,92.9z"/>
		<path class="st0" d="M256.4,98h4.4c0.3,2,1.8,2.9,3.9,2.9c2.1,0,3.3-0.8,3.3-2c0-1.7-2.2-1.9-4.7-2.4c-3.2-0.6-6.3-1.5-6.3-5.4
			c0-3.8,3.2-5.7,7.2-5.7c4.7,0,7.3,2.3,7.6,5.9h-4.3c-0.2-1.9-1.4-2.6-3.4-2.6c-1.8,0-3,0.7-3,2c0,1.5,2.4,1.7,4.9,2.2
			c3,0.6,6.3,1.5,6.3,5.6c0,3.6-3,5.7-7.5,5.7C259.5,104.2,256.6,101.7,256.4,98z"/>
		<path class="st0" d="M273.6,94.8c0-5.3,3.6-9.3,8.8-9.3c5.7,0,8.8,4.4,8.8,10.7h-12.9c0.3,2.7,1.9,4.4,4.5,4.4
			c1.8,0,2.9-0.8,3.4-2.2h4.6c-0.7,3.1-3.5,5.8-8,5.8C276.9,104.2,273.6,100.1,273.6,94.8z M278.3,92.9h7.9
			c-0.1-2.2-1.6-3.8-3.8-3.8C279.9,89.1,278.7,90.6,278.3,92.9z"/>
		<path class="st0" d="M303.9,101.7L303.9,101.7c-1,1.3-2.2,2.4-5.3,2.4c-3.6,0-6.2-1.9-6.2-5.4c0-3.9,3.2-5.2,7.1-5.7
			c2.9-0.4,4.3-0.7,4.3-2c0-1.3-1-2.1-3-2.1c-2.2,0-3.3,0.8-3.4,2.5h-4.2c0.1-3.1,2.5-5.8,7.6-5.8c5.3,0,7.5,2.4,7.5,6.5v9
			c0,1.3,0.2,2.1,0.6,2.5v0.2h-4.5C304.1,103.4,304,102.5,303.9,101.7z M303.9,97.4v-2.7c-0.8,0.5-2.1,0.8-3.3,1
			c-2.5,0.6-3.7,1.1-3.7,2.8s1.1,2.2,2.8,2.2C302.4,100.8,303.9,99.2,303.9,97.4z"/>
		<path class="st0" d="M315.8,88.8h0.1c1.1-2,2.3-3,4.4-3c0.5,0,0.8,0,1.1,0.1V90h-0.1c-3.1-0.3-5.3,1.3-5.3,5.1v8.7h-4.7V86h4.5
			V88.8z"/>
		<path class="st0" d="M322.1,94.8c0-5.3,3.5-9.4,8.9-9.4c4.6,0,7.4,2.7,8.1,6.5h-4.6c-0.3-1.6-1.5-2.7-3.3-2.7
			c-2.8,0-4.3,2.2-4.3,5.6c0,3.4,1.3,5.6,4.2,5.6c1.9,0,3.3-1,3.6-3h4.5c-0.3,3.8-3.3,6.8-8,6.8C325.6,104.2,322.1,100.1,322.1,94.8
			z"/>
		<path class="st0" d="M345.9,88.3h0.1c1.3-1.9,2.7-2.8,5.2-2.8c3.7,0,6.1,2.8,6.1,6.6v11.6h-4.7V92.8c0-1.9-1.1-3.3-3.1-3.3
			c-2.1,0-3.6,1.7-3.6,4.1v10.1h-4.7V79h4.7V88.3z"/>
		<path class="st0" d="M216.7,113.4h5v9.9l9.5-9.9h6.2l-9.7,9.9l10.3,14.8h-5.9l-8-11.6l-2.5,2.6v9h-5V113.4z"/>
		<path class="st0" d="M244.2,122.8h0.1c1.2-1.9,2.8-2.9,5.3-2.9c3.7,0,6.1,2.8,6.1,6.6v11.6H251v-10.9c0-1.9-1.1-3.3-3.1-3.3
			c-2.1,0-3.6,1.7-3.6,4.1v10.1h-4.7v-17.8h4.6V122.8z"/>
		<path class="st0" d="M257.7,129.2c0-5.3,3.8-9.4,9.3-9.4c5.5,0,9.3,4.1,9.3,9.4s-3.8,9.4-9.3,9.4
			C261.5,138.6,257.7,134.5,257.7,129.2z M271.5,129.2c0-3.5-1.6-5.8-4.5-5.8c-2.9,0-4.5,2.4-4.5,5.8s1.6,5.8,4.5,5.8
			C269.9,135,271.5,132.7,271.5,129.2z"/>
		<path class="st0" d="M276.6,120.3h4.7l2.1,8.2c0.4,1.5,0.8,3.3,0.8,3.3h0.1c0,0,0.4-1.9,0.8-3.4l2.2-8.2h4l2.3,8.2
			c0.4,1.5,0.8,3.4,0.8,3.4h0.1c0,0,0.4-1.9,0.8-3.3l2.2-8.2h4.6l-5.3,17.8h-4.3l-2.4-8.7c-0.4-1.4-0.8-3.1-0.8-3.1h-0.1
			c0,0-0.4,1.7-0.8,3.1l-2.4,8.7h-4.3L276.6,120.3z"/>
		<path class="st0" d="M303.8,113.4h4.7v24.7h-4.7V113.4z"/>
		<path class="st0" d="M310.8,129.2c0-5.3,3.6-9.3,8.8-9.3c5.7,0,8.8,4.4,8.8,10.7h-12.9c0.3,2.7,1.9,4.4,4.5,4.4
			c1.8,0,2.9-0.8,3.4-2.2h4.6c-0.7,3.1-3.5,5.8-8,5.8C314.1,138.6,310.8,134.5,310.8,129.2z M315.5,127.3h7.9
			c-0.1-2.2-1.6-3.8-3.8-3.8C317.1,123.5,315.9,125,315.5,127.3z"/>
		<path class="st0" d="M329.6,129.2c0-5.5,3.1-9.4,7.6-9.4c2.5,0,4,1.1,5,2.6h0.1v-9.1h4.7v24.7h-4.5v-2.3h-0.1
			c-1,1.7-2.8,2.8-5.3,2.8C332.6,138.6,329.6,135,329.6,129.2z M342.4,129.3c0-3.4-1.1-5.7-4.1-5.7c-2.6,0-3.9,2.3-3.9,5.6
			c0,3.4,1.3,5.4,3.8,5.4C340.9,134.7,342.4,132.6,342.4,129.3z"/>
		<path class="st0" d="M349.6,138.6h4.7c0.4,1.1,1.4,2,3.6,2c2.7,0,3.9-1.3,3.9-3.7V135h-0.1c-1,1.2-2.4,2.1-4.6,2.1
			c-3.9,0-7.8-3.1-7.8-8.5c0-5.3,3.2-8.7,7.7-8.7c2.2,0,3.8,0.9,4.9,2.4h0.1v-1.9h4.5v16.4c0,2.5-0.8,4.2-2.1,5.4
			c-1.5,1.4-3.8,2-6.4,2C353,144.2,350,142.1,349.6,138.6z M362,128.4c0-2.6-1.4-4.8-4.2-4.8c-2.4,0-4,1.9-4,4.8c0,3,1.6,4.8,4,4.8
			C360.8,133.3,362,131.1,362,128.4z"/>
		<path class="st0" d="M368.6,129.2c0-5.3,3.6-9.3,8.8-9.3c5.7,0,8.8,4.4,8.8,10.7h-12.9c0.3,2.7,1.9,4.4,4.5,4.4
			c1.8,0,2.9-0.8,3.4-2.2h4.6c-0.7,3.1-3.5,5.8-8,5.8C371.9,138.6,368.6,134.5,368.6,129.2z M373.3,127.3h7.9
			c-0.1-2.2-1.6-3.8-3.8-3.8C374.9,123.5,373.7,125,373.3,127.3z"/>
		<path class="st0" d="M234.6,169.2L234.6,169.2c-1.8,2.8-4.1,3.8-7,3.8c-3.7,0-6.6-1.4-8.7-3.6c-2-2.3-3.2-5.5-3.2-9.2
			c0-4.1,1.5-7.7,4-10.1c2-1.8,4.6-2.8,8-2.8c6.2,0,9.8,3.4,10.6,8.3h-4.9c-0.6-2.4-2.4-4.1-5.6-4.1c-4.7,0-7,3.9-7,8.8
			c0,5.1,2.7,8.8,6.9,8.8c3.8,0,6.4-2.9,6.4-5.6v-0.1h-6v-3.9h10.4v13.2h-3.8L234.6,169.2z"/>
		<path class="st0" d="M246.2,157.6h0.1c1.1-2,2.3-3,4.4-3c0.5,0,0.8,0,1.1,0.1v4.1h-0.1c-3.1-0.3-5.3,1.3-5.3,5.1v8.7h-4.7v-17.8
			h4.5V157.6z"/>
		<path class="st0" d="M263.9,170.5L263.9,170.5c-1,1.3-2.2,2.4-5.3,2.4c-3.6,0-6.2-1.9-6.2-5.4c0-3.9,3.2-5.2,7.1-5.7
			c2.9-0.4,4.3-0.7,4.3-2c0-1.3-1-2.1-3-2.1c-2.2,0-3.3,0.8-3.4,2.5h-4.2c0.1-3.1,2.5-5.8,7.6-5.8c5.3,0,7.5,2.4,7.5,6.5v9
			c0,1.3,0.2,2.1,0.6,2.5v0.2h-4.5C264.2,172.2,264,171.3,263.9,170.5z M264,166.2v-2.7c-0.8,0.5-2.1,0.8-3.3,1
			c-2.5,0.6-3.7,1.1-3.7,2.8s1.1,2.2,2.8,2.2C262.5,169.6,264,168,264,166.2z"/>
		<path class="st0" d="M271.4,154.7h4.5v2.2h0.1c1.1-1.6,2.8-2.7,5.2-2.7c4.7,0,7.7,3.8,7.7,9.4c0,5.7-3.1,9.4-7.7,9.4
			c-2.5,0-4.1-1-5.1-2.5h-0.1v7.8h-4.7V154.7z M284.2,163.8c0-3.4-1.2-5.7-4.1-5.7c-2.9,0-4.1,2.5-4.1,5.7c0,3.2,1.5,5.3,4.3,5.3
			C282.7,169.1,284.2,167.1,284.2,163.8z"/>
		<path class="st0" d="M295.8,157.1h0.1c1.3-1.9,2.7-2.8,5.2-2.8c3.7,0,6.1,2.8,6.1,6.6v11.6h-4.7v-10.9c0-1.9-1.1-3.3-3.1-3.3
			c-2.1,0-3.6,1.7-3.6,4.1v10.1h-4.7v-24.7h4.7V157.1z"/>
	</g>
</g>
<g>
	<g>
		<g>
			<g>
				<g>
					<path class="st1" d="M172.6,128.3c-1.3-3.6-3.1-6.9-5-10c-2.2-3.6-4.7-7-7.4-10.2c-1.5,2.5-3.7,4.6-6.3,6
						c2.4,2.8,4.7,5.7,6.7,8.7c1.8,2.7,3.4,5.5,4.7,8.4c1.2,2.9,2,5.8,2,8.5c0,1.3-0.3,2.6-0.7,3.8c-0.5,1.1-1.1,2.2-2.1,3.1
						c-0.9,0.9-2.1,1.7-3.4,2.3c-1.3,0.6-2.8,1.1-4.3,1.5c-3,0.7-6.3,1-9.6,1c-3.3,0-6.7-0.3-10-0.7c-6.7-0.8-13.4-2.4-20.1-4.2
						c-6.6-1.9-13.2-4.1-19.7-6.6c3,1.7,6.1,3.3,9.3,4.8c3.2,1.5,6.3,2.9,9.6,4.2c3.2,1.3,6.6,2.5,9.9,3.6c3.4,1.1,6.8,2,10.2,2.8
						c3.5,0.8,7,1.3,10.6,1.6c3.6,0.3,7.3,0.2,11.1-0.4c1.9-0.3,3.8-0.8,5.7-1.6c1.9-0.8,3.7-1.8,5.4-3.3c1.6-1.4,3-3.3,4-5.3
						c0.9-2,1.4-4.2,1.5-6.3C174.9,135.7,173.9,131.8,172.6,128.3z"/>
				</g>
			</g>
			<g>
				<g>
					<path class="st1" d="M23.2,50.9c2.8-1,5.9-1.4,9.1-1.5c3.2-0.1,6.5,0.2,9.8,0.7c2,0.3,4,0.7,6,1.1c0,0,0-0.1,0-0.1
						c0-2.7,0.7-5.2,1.9-7.4c-2.3-0.4-4.6-0.7-7-0.9c-3.6-0.3-7.3-0.4-11-0.1c-3.7,0.3-7.5,1-11.2,2.7c-1.8,0.8-3.6,1.9-5.1,3.4
						c-1.5,1.4-2.9,3.2-3.7,5.2c-0.8,2-1.2,4-1.3,6c0,2,0.2,3.9,0.7,5.8c0.9,3.7,2.5,7,4.3,10.1c1.8,3.1,3.9,6,6.1,8.7
						c2.2,2.7,4.6,5.3,7.1,7.8c2.5,2.4,5.1,4.8,7.8,7c-2.3-2.6-4.6-5.2-6.7-8c-2.1-2.7-4.2-5.5-6.1-8.4c-1.9-2.9-3.6-5.8-5-8.9
						c-1.4-3-2.5-6.2-3-9.3c-0.5-3.1-0.3-6.2,1-8.6C18.2,53.7,20.4,52,23.2,50.9z"/>
				</g>
				<g>
					<path class="st1" d="M121.3,74.2c-5.9-3.9-11.9-7.6-18.1-11C97,59.9,90.6,56.8,84.1,54c-1.4-0.6-2.9-1.2-4.4-1.8
						c-0.2,3.1-1.4,5.9-3.1,8.3c1.3,0.6,2.6,1.1,3.9,1.7c6.2,2.8,12.3,5.9,18.2,9.2c5.9,3.3,11.8,6.9,17.4,10.6
						c5.5,3.6,10.8,7.5,15.9,11.5c1.3-2.9,3.4-5.4,6.1-7.1C132.7,82.2,127.1,78.1,121.3,74.2z"/>
				</g>
			</g>
		</g>
	</g>
	<path class="st1" d="M63.9,42.8c-4.6,0-8.3,3.7-8.3,8.3c0,4.6,3.7,8.3,8.3,8.3c4.6,0,8.3-3.7,8.3-8.3
		C72.2,46.5,68.5,42.8,63.9,42.8z"/>
	<path class="st0" d="M146.5,91.8c-4.6,0-8.3,3.7-8.3,8.3s3.7,8.3,8.3,8.3c4.6,0,8.3-3.7,8.3-8.3S151.1,91.8,146.5,91.8z"/>
	<g>
		<path class="st2" d="M63.9,35.2c3,0,5.9,0.9,8.3,2.4c1-3.1,2.2-6.2,3.6-9.1c1.4-2.9,3-5.7,4.8-8.1c1.8-2.5,4-4.4,6.3-5.6
			c1.2-0.5,2.3-0.9,3.6-1c1.2-0.1,2.5,0.1,3.7,0.6c1.2,0.4,2.5,1.1,3.7,2c1.2,0.9,2.3,1.9,3.4,3.1c2.2,2.3,4,5,5.7,7.8
			c1.7,2.8,3.2,5.8,4.6,8.9c2.8,6.2,4.9,12.7,6.8,19.2c1.9,6.6,3.4,13.3,4.7,20.1c-0.1-3.5-0.4-6.9-0.8-10.4
			c-0.4-3.4-0.9-6.9-1.4-10.3c-0.6-3.4-1.3-6.8-2.1-10.2c-0.8-3.4-1.8-6.8-2.9-10.1c-1.2-3.3-2.5-6.6-4.1-9.9
			c-1.6-3.2-3.5-6.4-5.8-9.3c-1.2-1.5-2.5-2.9-4-4.1c-1.5-1.3-3.2-2.4-5.2-3.2c-1.9-0.8-4.1-1.4-6.4-1.4c-2.2,0-4.4,0.5-6.5,1.3
			c-4,1.8-7,4.5-9.5,7.4c-2.5,3-4.4,6.1-6.1,9.4c-1.7,3.3-3.2,6.6-4.4,10C64,34.9,63.9,35,63.9,35.2C63.9,35.2,63.9,35.2,63.9,35.2z
			"/>
		<path class="st2" d="M116.6,160.2c-1.2,3.2-2.6,6.4-4.1,9.4c-1.6,3-3.2,6-5.2,8.6c-2,2.7-4.2,5.1-6.8,6.8c-2.5,1.7-5.3,2.6-8,2.1
			c-0.2,0-0.3,0-0.5-0.1l-0.5-0.1l-0.5-0.1c-0.2-0.1-0.3-0.1-0.5-0.2c-0.3-0.1-0.6-0.2-1-0.4l-0.9-0.5c-1.2-0.7-2.4-1.6-3.5-2.7
			c-2.2-2.1-4.1-4.7-5.7-7.5c-1.6-2.8-3-5.8-4.3-8.8c-0.6-1.5-1.2-3-1.7-4.5c-2.2,1.3-4.7,2.1-7.4,2.2c0.7,1.8,1.5,3.6,2.3,5.3
			c1.5,3.3,3.2,6.4,5.3,9.5c2,3,4.4,6,7.4,8.5c1.5,1.3,3.1,2.4,5,3.3c1.8,0.9,3.9,1.4,6,1.6c2.1,0.2,4.2-0.2,6.2-0.9
			c1.9-0.7,3.7-1.7,5.1-3c3-2.4,5.2-5.4,7-8.5c1.8-3.1,3.3-6.3,4.5-9.6c1.2-3.3,2.2-6.6,3.1-10c0.8-3.4,1.5-6.8,2-10.2
			C118.9,153.7,117.9,157,116.6,160.2z"/>
		<path class="st2" d="M58,134.6c2.2-1.2,4.8-1.9,7.4-1.9c0.4,0,0.8,0,1.2,0c-0.2-1.7-0.5-3.4-0.7-5.1c-0.8-6.7-1.4-13.5-1.6-20.2
			c-0.3-6.8-0.3-13.5,0-20.3c0.2-6.8,0.8-13.5,1.6-20.2c0-0.1,0-0.1,0-0.2c-0.6,0.1-1.3,0.1-2,0.1c-2.6,0-5.1-0.6-7.2-1.8
			c0,0.2-0.1,0.4-0.1,0.6c-0.9,7-1.5,14-1.8,21.1C54.3,100.9,55,115,57,128.9C57.3,130.8,57.6,132.7,58,134.6z"/>
	</g>
	<g>
		<path class="st0" d="M174,61.6c0-0.5,0-1,0-1.5l-0.2-1.5c0-0.5-0.2-1-0.3-1.5c-0.1-0.5-0.2-1-0.4-1.5c-0.2-0.5-0.4-1-0.6-1.5
			l-0.8-1.4c-1.1-1.8-2.6-3.4-4.2-4.5c-1.7-1.2-3.5-2-5.3-2.6c-3.6-1.2-7.3-1.5-10.9-1.4c-3.6,0-7.1,0.4-10.6,1.1
			c-3.5,0.6-6.9,1.5-10.2,2.5c-3.3,1-6.6,2.1-9.8,3.4c3.4-0.8,6.8-1.5,10.2-2c3.4-0.6,6.8-1,10.2-1.3c3.4-0.2,6.8-0.3,10.1,0
			c3.3,0.3,6.6,0.9,9.4,2.1c2.8,1.2,5.2,3.1,6.4,5.5l0.4,0.9l0.3,1c0.1,0.3,0.2,0.7,0.2,1c0,0.3,0.1,0.7,0.1,1l0,1.1
			c0,0.4,0,0.7-0.1,1.1l0,0.5c0,0.2-0.1,0.4-0.1,0.5l-0.2,1.1c-0.6,2.9-1.9,5.9-3.4,8.7c-1.5,2.8-3.4,5.6-5.4,8.2
			c-1.5,2-3,3.8-4.7,5.7c2.3,1.3,4.3,3.2,5.7,5.4c1.8-2.2,3.4-4.4,5-6.7c2-3,3.9-6.1,5.5-9.5c1.6-3.3,2.9-6.9,3.4-10.8l0.1-1.5
			c0-0.2,0-0.5,0.1-0.7L174,61.6z"/>
		<path class="st0" d="M49.5,148.6c0-0.1,0-0.3,0-0.4c-0.3,0.1-0.6,0.1-0.8,0.2c-3.2,0.7-6.5,1.2-9.7,1.5c-3.2,0.3-6.5,0.3-9.5,0
			c-3.1-0.3-6-1.1-8.2-2.5c-2.3-1.4-3.7-3.3-4.4-5.9c-0.6-2.6-0.3-5.6,0.6-8.6c0.8-3,2.2-6,3.8-8.9c1.6-2.9,3.4-5.7,5.4-8.5
			c3.9-5.5,8.4-10.7,13.2-15.6c2.4-2.5,4.8-4.9,7.4-7.2c2.5-2.4,5.1-4.7,7.7-7c-2.9,1.9-5.8,3.8-8.6,5.9c-2.8,2.1-5.5,4.2-8.2,6.4
			c-5.4,4.5-10.4,9.3-15.1,14.7c-2.3,2.7-4.5,5.5-6.4,8.5c-1,1.5-1.9,3.1-2.7,4.7c-0.8,1.6-1.6,3.3-2.2,5.1
			c-0.6,1.8-1.2,3.7-1.4,5.6c-0.3,2-0.3,4.1,0,6.2c0.4,2.1,1.2,4.3,2.4,6.1c0.6,0.9,1.3,1.8,2.1,2.6c0.8,0.8,1.6,1.5,2.5,2.1
			c1.8,1.2,3.7,2.1,5.6,2.7c1.9,0.6,3.8,1.1,5.7,1.4c1.9,0.3,3.8,0.4,5.6,0.5c1.9,0.1,3.7,0,5.5-0.1c3.7-0.2,7.3-0.6,10.8-1.3
			c0.5-0.1,0.9-0.2,1.4-0.3C50.3,154.3,49.5,151.5,49.5,148.6z"/>
		<path class="st0" d="M132.1,106.7c-0.7,0.6-1.5,1.1-2.2,1.7c-5.4,4.1-10.9,8-16.7,11.6c-5.7,3.7-11.6,7.1-17.6,10.3
			c-5.8,3.1-11.8,6-17.8,8.6c1.9,2.4,3.1,5.4,3.4,8.7c6.5-2.7,12.7-5.7,18.9-8.9c12.4-6.7,24.3-14.3,35.3-23.1
			c0.8-0.7,1.7-1.4,2.5-2C135.4,111.8,133.3,109.4,132.1,106.7z"/>
	</g>
	<path class="st1" d="M73.7,148.6c0-4.6-3.7-8.3-8.3-8.3c-4.6,0-8.3,3.7-8.3,8.3c0,4.6,3.7,8.3,8.3,8.3
		C70,156.9,73.7,153.2,73.7,148.6z"/>
</g>
</svg>
